<svg xmlns="http://www.w3.org/2000/svg" viewBox="0 0 66.66 64.4"><defs><style>.cls-1{fill:#fff;}.cls-2,.cls-3,.cls-4,.cls-5{fill:none;stroke:#fff;stroke-miterlimit:10;}.cls-2{stroke-width:0.9px;}.cls-3{stroke-width:0.43px;}.cls-4{stroke-width:0.49px;}.cls-5{stroke-width:0.88px;}</style></defs><g id="Layer_2" data-name="Layer 2"><g id="Layer_1-2" data-name="Layer 1"><path class="cls-1" d="M41.83,23.05a3.16,3.16,0,0,0,4.86-.11c1.67-1.85,1.75-5,1.75-5.32Zm4.38-.86a2,2,0,0,1-3,.07L47.29,19A5.32,5.32,0,0,1,46.21,22.19Z"/><path class="cls-1" d="M29,59.25c.68-.18,1.24-.3,1.63-.37A9.06,9.06,0,0,0,32,58.6a4,4,0,0,1,1.9-.48,3.53,3.53,0,0,1,1.49.55,5.23,5.23,0,0,0,1.15.34c.43.1,1,.26,1.82.49a4.87,4.87,0,0,1-.91,2.76,1.45,1.45,0,0,1-.29.26c-.4.26-.75.2-1.71.74-1.18.69-1.14,1.07-1.73,1.13s-.65-.22-2.44-1.31a9,9,0,0,1-1.37-.88,1.62,1.62,0,0,1-.17-.19A4.76,4.76,0,0,1,29,59.25Z"/><path class="cls-2" d="M25.27,49.81a2.85,2.85,0,0,0-.16,1,3.15,3.15,0,0,0,.6,1.69,14.3,14.3,0,0,0,2.21,2.66c-.11-.43-.26-1-.38-1.8a5.3,5.3,0,0,1-.13-1.72,3.49,3.49,0,0,1,.87-1.78Z"/><path class="cls-3" d="M29.33,59.75a2.79,2.79,0,0,1,0-.72,1.83,1.83,0,0,1,.23-.81,4.27,4.27,0,0,1,1-1.15,2.54,2.54,0,0,0,.27,1.6l.05.06a1,1,0,0,0,.16.19A1.54,1.54,0,0,0,32,59Z"/><path class="cls-4" d="M37.92,59.76A2.79,2.79,0,0,0,38,59a1.94,1.94,0,0,0-.2-.81,4.34,4.34,0,0,0-.89-1.16,2.71,2.71,0,0,1-.25,1.6l0,.07a2.4,2.4,0,0,1-.15.19,1.3,1.3,0,0,1-.95.12Z"/><path class="cls-1" d="M18.32,18.09c0,.36.09,3.46,1.75,5.32a3.16,3.16,0,0,0,4.86.11Zm2.23,4.56a5.32,5.32,0,0,1-1.08-3.21l4.08,3.27A2,2,0,0,1,20.55,22.65Z"/><path class="cls-1" d="M45.33,49.54h0Z"/><path class="cls-1" d="M64.69,2C63.22-.26,59.11.06,57,.22a19.66,19.66,0,0,0-9.34,3.32l4.47,4.68a29.37,29.37,0,0,0-17.4-7A29.73,29.73,0,0,0,14.48,8.13L19,3.92C17.29,2.85,10.8-1.13,5.63.31A4.15,4.15,0,0,0,3.3,1.68c-1.45,1.86-.37,4.76.54,7.64A128.87,128.87,0,0,1,7.09,23.68c.94,5.21.65,6.66,1.06,8.43A15.19,15.19,0,0,0,8.82,34a18.6,18.6,0,0,0,3.41,5.11l.28.3c1.29,1.31,3.94,4,9.51,9.82a10.43,10.43,0,0,1-2.86-5.11,10.9,10.9,0,0,1,.48-5.87c1.17-3.59,3.05-4.17,4.23-8a14.7,14.7,0,0,0,.63-3.45,6.66,6.66,0,0,1-5-.83,6.62,6.62,0,0,1-2.93-5.23c-.39-.83-.77-1.66-1.15-2.49,1.57.82,2.81,1.56,3.65,2.07a50.89,50.89,0,0,0,5.45,3.19c.66.3,1.2.53,1.56.68a12.58,12.58,0,0,1-.64,8c-.71,1.51-1.17,1.54-2.17,3.4s-2.79,5.21-1.81,8.92a9.69,9.69,0,0,0,3.53,5,22.1,22.1,0,0,0,2.37,0c2.72-.09,3.49-.57,3.78-.78a4.11,4.11,0,0,0,.94-1,8,8,0,0,0,1.05-5.52,5.76,5.76,0,0,1-1.62-.27L31,41.92a5.43,5.43,0,0,1-.61-.31c-1.24-.75-1.46-1.71-2.07-2.33-1.33-1.35-3.44-.11-4.05-1-1-1.5,4.17-6.83,4.28-6.74s-3.73,4.12-2.83,5.34c.49.66,1.69-.4,3.34.34,1.86.83,2.16,3,4.16,3.18a3.14,3.14,0,0,0,.45,0c1.76-.15,2.09-2,3.69-2.86s3,.2,3.55-.53c1-1.34-2.92-5.62-2.79-5.73s5.41,5.76,4.37,7c-.6.74-3.15-.19-4.39,1.28h0a13.79,13.79,0,0,1-1.9,2.23,2.07,2.07,0,0,1-.53.3,6.13,6.13,0,0,1-.67.13,6.45,6.45,0,0,1-1.28.06A8,8,0,0,0,34.84,48a3.79,3.79,0,0,0,.94,1c.63.43,1.36.63,4.13.64.6,0,1.4,0,2.36,0A9.41,9.41,0,0,0,45.42,45c1.18-3.94-.93-7.73-1.81-9.34-1.08-2-1.58-2-2.32-3.55a12.39,12.39,0,0,1-.57-7.87,15.69,15.69,0,0,1,1.47-1.15c2-1.41,3.44-1.82,6.08-3.1.72-.35,1.78-.89,3.06-1.62-.32.81-.65,1.61-1,2.42a11.85,11.85,0,0,1-.82,2.42,7.72,7.72,0,0,1-2,2.91c-2,1.57-4.85.82-5.38.67a15.08,15.08,0,0,0,.51,3.32c1,3.8,3.24,4.32,4.73,8.11a10.84,10.84,0,0,1,.81,6.08,10.11,10.11,0,0,1-2.83,5.25c.2-.19,9.46-9.8,9.71-10.24.08-.14.15-.29.15-.29a2.21,2.21,0,0,0,.13-.27,39.43,39.43,0,0,0,3.26-5,9.23,9.23,0,0,0,.59-1.89,21.13,21.13,0,0,0,.41-4.09,39.2,39.2,0,0,1,.64-4.06,67.75,67.75,0,0,1,1.66-7.1C62.58,14.23,63,13.28,64,9.8c.21-.72.42-1.55.62-2.6C65.13,4.46,65.38,3.06,64.69,2ZM9.14,32.71c-1.37-3.83-.39-7.33-.2-7.32a21.66,21.66,0,0,0,.91,6.72,23.66,23.66,0,0,0,3.92,6.72C13.6,38.93,10.51,36.52,9.14,32.71Zm4.66-1.47c0,2-.49,3.57-1.1,3.57s-1.09-1.6-1.09-3.57.49-3.57,1.09-3.57S13.8,29.27,13.8,31.24Zm-1.58-5.85c0-.4.5-.71,1.13-.71s1.13.31,1.13.71-.5.71-1.13.71S12.22,25.78,12.22,25.39ZM11.18,6q-1.11,0-2.1,0a17.45,17.45,0,0,1,1.42,6.39,17.31,17.31,0,0,1-1.42,7.27,39.25,39.25,0,0,0-.9-8.36A38.71,38.71,0,0,0,6,4.31a9.21,9.21,0,0,1,3.74,0A9.33,9.33,0,0,1,13.8,6.18C13,6.09,12.11,6,11.18,6ZM21.36,27.78a5.33,5.33,0,0,0,2.43-.13,13.52,13.52,0,0,1-3.54,7.72,21.4,21.4,0,0,0,2.07-4.08,21.85,21.85,0,0,0,.86-2.86,4.83,4.83,0,0,1-1.74-.13,4.9,4.9,0,0,1-2.5-1.6A5.42,5.42,0,0,0,21.36,27.78ZM16.42,26.1c.26,0,.47,1.08.47,2.41s-.21,2.42-.47,2.42S16,29.85,16,28.51,16.17,26.1,16.42,26.1ZM16.27,34c.25,0,.45.65.45,1.46s-.2,1.46-.45,1.46-.45-.66-.45-1.46S16,34,16.27,34ZM21.85,7.73c-2.09,1.2-4,1.8-4.26,1.34s1.21-1.81,3.3-3,4-1.81,4.25-1.35S23.94,6.52,21.85,7.73Zm9,37.07A.14.14,0,0,1,31,45a.14.14,0,0,1-.14.14.14.14,0,0,1-.15-.14A.14.14,0,0,1,30.82,44.8Zm-1.57-2.26a.15.15,0,1,1-.15.15A.15.15,0,0,1,29.25,42.54Zm-.39,4.13a.15.15,0,0,1,0,.3.15.15,0,0,1,0-.3Zm-.42-2.17a.15.15,0,1,1-.15.15A.15.15,0,0,1,28.44,44.5Zm-2-1.51a.15.15,0,1,1-.15.15A.15.15,0,0,1,26.44,43Zm-.15,2.21a.15.15,0,1,1-.15.15A.15.15,0,0,1,26.29,45.2Zm-.15,2.17a.15.15,0,1,1-.15.15A.15.15,0,0,1,26.14,47.37ZM24.44,42a.15.15,0,0,1,.15.14.15.15,0,0,1-.3,0A.15.15,0,0,1,24.44,42Zm-.15,2.68a.15.15,0,1,1-.15.15A.15.15,0,0,1,24.29,44.68ZM34.11,8.74c-.43,0-.88-.78-1-1.79s.12-1.87.56-1.89.88.77,1,1.79S34.55,8.71,34.11,8.74Zm1.27,36.33a.14.14,0,0,1-.15-.15.14.14,0,0,1,.15-.14.14.14,0,0,1,.14.14A.14.14,0,0,1,35.38,45.07Zm1.35,3a.15.15,0,1,1,.15-.15A.15.15,0,0,1,36.73,48.06Zm.3-5a.14.14,0,0,1-.15-.14.14.14,0,0,1,.15-.15.14.14,0,0,1,.14.15A.14.14,0,0,1,37,43.08Zm.71,3a.15.15,0,1,1,.15-.15A.15.15,0,0,1,37.74,46Zm2.09-2.81a.15.15,0,0,1,0,.3.15.15,0,0,1,0-.3Zm-.14,4.68a.14.14,0,0,1-.15-.15.14.14,0,0,1,.15-.14.14.14,0,0,1,.14.14A.14.14,0,0,1,39.69,47.91ZM40,45.74a.15.15,0,1,1,.15-.15A.15.15,0,0,1,40,45.74Zm2.29-.09a.15.15,0,0,1,0-.3.15.15,0,0,1,0,.3Zm0-2.71a.15.15,0,0,1,0-.3.15.15,0,0,1,0,.3ZM46.63,7.3c-.13.22-1.06-.07-2.07-.66S42.83,5.4,43,5.18s1,.07,2.07.65S46.76,7.07,46.63,7.3Zm-1.33,21a4.63,4.63,0,0,1-1.75.12,22.1,22.1,0,0,0,.87,2.87,21.42,21.42,0,0,0,2.06,4.08,13.51,13.51,0,0,1-2.56-4,13.65,13.65,0,0,1-1-3.74,5.52,5.52,0,0,0,2.44.13,5.43,5.43,0,0,0,2.41-1.08A4.9,4.9,0,0,1,45.3,28.28Zm5,1.33c.41,0,.74.75.74,1.67s-.33,1.66-.74,1.66-.74-.74-.74-1.66S49.85,29.61,50.26,29.61Zm.16,10.78c-.26,0-.47-1-.47-2.12s.21-2.12.47-2.12.47,1,.47,2.12S50.68,40.39,50.42,40.39Zm2.43-2.86c-.59,0-1.06-1.46-1.06-3.26S52.26,31,52.85,31s1.06,1.45,1.06,3.25S53.43,37.53,52.85,37.53Zm5.2-4.82c-1.36,3.81-4.45,6.22-4.62,6.12a23.66,23.66,0,0,0,3.92-6.72,21.08,21.08,0,0,0,.9-6.72C58.45,25.38,59.43,28.88,58.05,32.71ZM55.1,30.22c0-.52.12-.94.25-.94s.25.42.25.94-.11.94-.25.94S55.1,30.74,55.1,30.22Zm3.49-18.93a39.16,39.16,0,0,0-.89,8.36A17.07,17.07,0,0,1,57.7,6C57,6,56.33,6,55.59,6c-.93,0-1.81.1-2.62.19a9.33,9.33,0,0,1,4.09-1.91,9.2,9.2,0,0,1,3.74,0A39.53,39.53,0,0,0,58.59,11.29Z"/><path class="cls-5" d="M43.1,45.65a20.58,20.58,0,0,1,8.52,4.16,21.68,21.68,0,0,1,5.25,6.33"/><path class="cls-5" d="M43,45.83a21,21,0,0,1,7,6.52A22.92,22.92,0,0,1,53.39,60"/><path class="cls-5" d="M39.68,45.78a34.8,34.8,0,0,1,14-1.33A42.44,42.44,0,0,1,66,47.65"/><path class="cls-5" d="M40.88,47.74a40.34,40.34,0,0,1,13.06-6.81A42.92,42.92,0,0,1,66.66,39"/><path class="cls-5" d="M24.06,44.69a20.65,20.65,0,0,0-8.52,4.16,21.82,21.82,0,0,0-5.25,6.34"/><path class="cls-5" d="M24.11,44.87a21.35,21.35,0,0,0-7,6.53,22.69,22.69,0,0,0-3.33,7.69"/><path class="cls-5" d="M27.16,42.75a35.3,35.3,0,0,0-14,.9A42.5,42.5,0,0,0,1.45,48.76"/><path class="cls-5" d="M26.72,45.16A40.27,40.27,0,0,0,12.91,40,43.37,43.37,0,0,0,.05,39.66"/><path class="cls-2" d="M41.81,49.81a2.59,2.59,0,0,1,.17,1,3.24,3.24,0,0,1-.61,1.69,13.92,13.92,0,0,1-2.21,2.66c.12-.43.26-1,.39-1.8a5.24,5.24,0,0,0,.12-1.72,3.41,3.41,0,0,0-.87-1.78Z"/></g></g></svg>